<mxfile host="app.diagrams.net" modified="2024-06-15T19:00:02.746Z" agent="Mozilla/5.0 (Windows NT 10.0; Win64; x64) AppleWebKit/537.36 (KHTML, like Gecko) Chrome/126.0.0.0 Safari/537.36" version="24.5.4" etag="4147i8fmyooEuO_-VoiZ" type="github">
  <diagram name="PÃ¡gina-1" id="8SId0abtVIQ0vbXEzV0y">
    <mxGraphModel>
      <root>
        <mxCell id="0" />
        <mxCell id="1" parent="0" />
      </root>
    </mxGraphModel>
  </diagram>
</mxfile>
